<svg id="Capa_1" enable-background="new 0 0 512 512" height="512" viewBox="0 0 512 512" width="512" xmlns="http://www.w3.org/2000/svg"><g><path d="m512 256c0 97.97-55.03 183.08-135.87 226.11l-3.86.15-7.91 5.73c-32.91 15.41-69.63 24.01-108.36 24.01-34.32 0-67.06-6.76-96.97-19.01l-8.92-7.34h-7.36c-84.58-41.79-142.75-128.93-142.75-229.65 0-46.22 12.25-89.57 33.68-127 44.12-77.07 127.16-129 222.32-129s178.2 51.93 222.32 129c21.43 37.43 33.68 80.78 33.68 127z" fill="#f4dee8"/><path d="m512 256c0 97.97-55.03 183.08-135.87 226.11l-3.86.15-7.91 5.73c-32.91 15.41-69.63 24.01-108.36 24.01-34.32 0-67.06-6.76-96.97-19.01l-8.92-7.34h-7.36c-84.58-41.79-142.75-128.93-142.75-229.65 0-46.22 12.25-89.57 33.68-127 44.12 77.07 127.16 129 222.32 129s178.21-51.93 222.32-129c21.43 37.43 33.68 80.78 33.68 127z" fill="#f4b4d1"/><g><g><path d="m142.947 326.434 2.858 11.414-13.255 4.791-14.763-3.956 13.274-11.566z" fill="#ff3445"/><path d="m151.899 323.465-7.894-7.623-62.663-67.048-11.868-12.304c-35.24-36.59-29.307-97.648 14.545-124.999.81-.512 1.642-1.003 2.471-1.482 20.025-11.551 42.845-13.915 63.557-8.365 6.878 1.843 13.521 4.562 19.747 8.108 9.16 5.201 17.423 12.181 24.223 20.8z" fill="#ff3445"/><path d="m151.233 325.95 5.97 13.191-11.394 7.051-13.259-3.553 8.279-12.904 2.118-3.301z" fill="#dd1265"/><path d="m200.882 140.659 20.657 99.873-69.64 82.933-3.003-6.313-23.029-56.428-4.401-10.303c-13.102-30.658-21.25-78.07 7.522-111.559 18.629-21.683 53.018-23.526 65.034-8.324 2.488 3.161 4.792 6.54 6.86 10.121z" fill="#dd1265"/><path d="m173.832 353.7-28.023-7.508 5.424-20.242 16.886 11.097z" fill="#ba0d5c"/><path d="m140.98 400.61c0 6.83 3.86 10.09 8.76 14.23 5.27 4.45 11.24 9.49 11.24 19.57 0 10.07-5.97 15.12-11.24 19.57-4.9 4.13-8.76 7.4-8.76 14.22 0 6.83 3.86 10.09 8.76 14.23 3.4 2.87 7.1 5.99 9.3 10.56-5.53-2.26-10.96-4.71-16.29-7.34-4.5-4.01-8.77-8.93-8.77-17.45 0-10.07 5.97-15.12 11.24-19.57 4.89-4.13 8.76-7.4 8.76-14.22 0-6.83-3.87-10.09-8.76-14.23-5.27-4.45-11.24-9.49-11.24-19.57 0-10.07 5.97-15.12 11.24-19.57 4.89-4.13 8.76-7.4 8.76-14.22v-42.16h7v42.16c0 10.07-5.97 15.12-11.24 19.57-4.9 4.13-8.76 7.4-8.76 14.22z" fill="#fff"/><path d="m140.98 400.61c0 6.83 3.86 10.09 8.76 14.23 5.27 4.45 11.24 9.49 11.24 19.57 0 10.07-5.97 15.12-11.24 19.57-4.9 4.13-8.76 7.4-8.76 14.22 0 6.83 3.86 10.09 8.76 14.23 3.4 2.87 7.1 5.99 9.29 10.56-1.94-.8-3.87-1.62-5.79-2.46l-.01-.01c-5.87-6.91-15.75-10.44-15.75-22.32 0-16.9 20-16.9 20-33.79 0-16.9-20-16.9-20-33.8 0-16.89 20-16.89 20-33.79v-42.16h3.5v42.16c0 10.07-5.97 15.12-11.24 19.57-4.9 4.13-8.76 7.4-8.76 14.22z" fill="#e0f8fc"/><path d="m356.77 442.91c0 6.83 3.86 10.09 8.76 14.23 5.27 4.45 11.24 9.49 11.24 19.57 0 1.98-.23 3.77-.65 5.4v.01c-3.86 2.06-7.78 4.02-11.76 5.87 3.2-3 5.41-6.12 5.41-11.28 0-6.83-3.87-10.09-8.76-14.23-5.27-4.45-11.24-9.49-11.24-19.57 0-10.07 5.97-15.12 11.24-19.57 4.89-4.13 8.76-7.4 8.76-14.22v-42.16h7v42.16c0 10.07-5.97 15.12-11.24 19.57-4.9 4.13-8.76 7.4-8.76 14.22z" fill="#fff"/><path d="m356.77 442.91c0 6.83 3.86 10.09 8.76 14.23 5.27 4.45 11.24 9.49 11.24 19.57 0 1.98-.23 3.77-.64 5.4-1.54.83-3.08 1.63-4.64 2.41 1.1-2.17 1.78-4.7 1.78-7.81 0-16.9-20-16.9-20-33.8 0-16.89 20-16.89 20-33.79v-42.16h3.5v42.16c0 10.07-5.97 15.12-11.24 19.57-4.9 4.13-8.76 7.4-8.76 14.22z" fill="#e0f8fc"/><path d="m266.538 289.433-15.971 4.578-88.02 26.799-10.648 2.655 48.983-182.806c40.057-23.127 91.264-9.407 114.391 30.651.479.829.954 1.671 1.399 2.519 24.34 45.68-1.164 101.634-50.134 115.604z" fill="#ba0d5c"/><path d="m148.896 317.152-.067 8.136-8 4.447-9.768-2.618 12.944-11.275z" fill="#fff"/><path d="m153.276 318.326 4.85 9.453-8.536 4.303-8.761-2.347 8.067-12.583z" fill="#e0f8fc"/><path d="m168.119 337.047-18.529-4.965 3.686-13.756 9.271 2.484z" fill="#c5ecfb"/></g><g><path d="m373.511 364.732 6.739 6.964-7.481 8.876-12.159 3.257 4.705-13.715z" fill="#ff3445"/><path d="m378.674 358.927-8.77-2.187-72.307-22.019-13.532-3.889c-40.204-11.586-61.116-57.58-41.101-95.148.367-.699.758-1.392 1.152-2.075 9.527-16.485 24.829-27.569 41.889-32.14 5.665-1.518 11.523-2.314 17.424-2.348 8.675-.062 17.443 1.513 25.843 4.861z" fill="#ff3445"/><path d="m379.222 360.974 9.691 6.95-5.224 9.721-10.92 2.927.591-12.614.151-3.226z" fill="#dd1265"/><path d="m338.331 208.365 55.863 62.73-15.52 87.832-4.742-3.266-39.664-30.765-7.382-5.536c-52.814-47.634-46.403-76.843-36.927-94.614 7.037-13.197 24.479-26.669 39.31-20.774 3.077 1.23 6.112 2.69 9.062 4.393z" fill="#dd1265"/><path d="m406.769 371.461-23.08 6.184-4.467-16.671 16.614.961z" fill="#ba0d5c"/><path d="m446.428 287.444-9.506 9.842-51.746 55.363-6.502 6.279-40.343-150.562c19.048-32.992 61.222-44.293 94.214-25.245.683.394 1.368.799 2.035 1.221 36.173 22.558 41.024 72.972 11.848 103.102z" fill="#ba0d5c"/><path d="m373.932 355.661 3.303 5.831-3.875 6.466-8.045 2.156 4.589-13.373z" fill="#fff"/><path d="m377.54 354.695 7.352 4.745-4.316 6.585-7.216 1.933.572-12.297z" fill="#e0f8fc"/><path d="m395.836 361.935-15.26 4.09-3.036-11.33 7.636-2.046z" fill="#c5ecfb"/></g></g><path d="" fill="#dd1265"/></g></svg>